<svg width="32" height="32" viewBox="0 0 512 512" fill="none" xmlns="http://www.w3.org/2000/svg">
<rect width="512" height="512" rx="112" fill="#1B2A4A"/>
<path d="M102 179L77 461C77 477 87 487 102 487H410C425 487 435 477 435 461L410 179H102Z" fill="#3B9AE1"/>
<path d="M102 179L77 461C77 477 87 487 102 487H282L332 179H102Z" fill="#43A047"/>
<path d="M179 256L77 461C77 477 87 487 102 487H230L281 256H179Z" fill="#FFC107"/>
<path d="M205 307L77 461C77 477 87 487 102 487H179L230 307H205Z" fill="#F7941D"/>
<path d="M215 333L77 461C77 477 87 487 102 487H154L205 333H215Z" fill="#E53935"/>
<path d="M179 179C179 112 205 77 256 77C307 77 333 112 333 179" stroke="white" stroke-width="26" fill="none" stroke-linecap="round"/>
<circle cx="256" cy="318" r="72" fill="white" opacity="0.95"/>
<path d="M256 267C230 267 210 287 210 313C210 349 256 390 256 390C256 390 302 349 302 313C302 287 282 267 256 267ZM256 328C248 328 241 321 241 313C241 305 248 298 256 298C264 298 271 305 271 313C271 321 264 328 256 328Z" fill="#F7941D"/>
</svg>
